<?xml version="1.0" encoding="UTF-8" standalone="no"?>
<!DOCTYPE svg PUBLIC "-//W3C//DTD SVG 1.1//EN"
 "http://www.w3.org/Graphics/SVG/1.1/DTD/svg11.dtd">
<!-- Generated by graphviz version 2.47.0 (20210316.0004)
 -->
<!-- Title: dependencies Pages: 1 -->
<svg width="504pt" height="287pt"
 viewBox="0.00 0.00 504.00 287.00" xmlns="http://www.w3.org/2000/svg" xmlns:xlink="http://www.w3.org/1999/xlink">
<g id="graph0" class="graph" transform="scale(1 1) rotate(0) translate(4 283)">
<title>dependencies</title>
<polygon fill="white" stroke="transparent" points="-4,4 -4,-283 500,-283 500,4 -4,4"/>
<text text-anchor="start" x="227.01" y="-42.4" font-family="sans-serif" font-weight="bold" font-size="14.00">Legend</text>
<polygon fill="#ffffb3" stroke="transparent" points="14,-10 14,-30 34,-30 34,-10 14,-10"/>
<text text-anchor="start" x="37.63" y="-15.4" font-family="sans-serif" font-size="14.00"> &#160;Declarations</text>
<polygon fill="#8dd3c7" stroke="transparent" points="127,-10 127,-30 147,-30 147,-10 127,-10"/>
<text text-anchor="start" x="150.73" y="-15.4" font-family="sans-serif" font-size="14.00"> &#160;Module</text>
<polygon fill="#80b1d3" stroke="transparent" points="213,-10 213,-30 233,-30 233,-10 213,-10"/>
<text text-anchor="start" x="236.78" y="-15.4" font-family="sans-serif" font-size="14.00"> &#160;Bootstrap</text>
<polygon fill="#fdb462" stroke="transparent" points="310,-10 310,-30 330,-30 330,-10 310,-10"/>
<text text-anchor="start" x="333.67" y="-15.4" font-family="sans-serif" font-size="14.00"> &#160;Providers</text>
<polygon fill="#fb8072" stroke="transparent" points="406,-10 406,-30 426,-30 426,-10 406,-10"/>
<text text-anchor="start" x="429.73" y="-15.4" font-family="sans-serif" font-size="14.00"> &#160;Exports</text>
<g id="clust1" class="cluster">
<title>cluster_AppModule</title>
<polygon fill="none" stroke="black" stroke-dasharray="1,5" points="102,-146 102,-271 376,-271 376,-146 102,-146"/>
</g>
<g id="clust3" class="cluster">
<title>cluster_AppModule_imports</title>
<polygon fill="none" stroke="black" points="248,-154 248,-206 368,-206 368,-154 248,-154"/>
</g>
<g id="clust6" class="cluster">
<title>cluster_AppModule_providers</title>
<polygon fill="none" stroke="black" points="110,-154 110,-206 240,-206 240,-154 110,-154"/>
</g>
<g id="clust7" class="cluster">
<title>cluster_ProductModule</title>
<polygon fill="none" stroke="black" stroke-dasharray="1,5" points="222,-70 222,-138 394,-138 394,-70 222,-70"/>
</g>
<g id="clust12" class="cluster">
<title>cluster_ProductModule_providers</title>
<polygon fill="none" stroke="black" points="230,-78 230,-130 386,-130 386,-78 230,-78"/>
</g>
<!-- ProductModule -->
<g id="node1" class="node">
<title>ProductModule</title>
<polygon fill="#8dd3c7" stroke="black" points="359.6,-198 356.6,-202 335.6,-202 332.6,-198 256.4,-198 256.4,-162 359.6,-162 359.6,-198"/>
<text text-anchor="middle" x="308" y="-175.8" font-family="Times,serif" font-size="14.00">ProductModule</text>
</g>
<!-- AppModule -->
<g id="node2" class="node">
<title>AppModule</title>
<polygon fill="#8dd3c7" stroke="black" points="282.66,-263 279.66,-267 258.66,-267 255.66,-263 199.34,-263 199.34,-227 282.66,-227 282.66,-263"/>
<text text-anchor="middle" x="241" y="-240.8" font-family="Times,serif" font-size="14.00">AppModule</text>
</g>
<!-- ProductModule&#45;&gt;AppModule -->
<g id="edge1" class="edge">
<title>ProductModule&#45;&gt;AppModule</title>
<path fill="none" stroke="black" d="M269.64,-198.11C269.64,-198.11 269.64,-216.99 269.64,-216.99"/>
<polygon fill="black" stroke="black" points="266.14,-216.99 269.64,-226.99 273.14,-216.99 266.14,-216.99"/>
</g>
<!-- AppService -->
<g id="node3" class="node">
<title>AppService</title>
<ellipse fill="#fdb462" stroke="black" cx="175" cy="-180" rx="56.74" ry="18"/>
<text text-anchor="middle" x="175" y="-175.8" font-family="Times,serif" font-size="14.00">AppService</text>
</g>
<!-- AppService&#45;&gt;AppModule -->
<g id="edge2" class="edge">
<title>AppService&#45;&gt;AppModule</title>
<path fill="none" stroke="black" d="M215.4,-192.84C215.4,-192.84 215.4,-216.52 215.4,-216.52"/>
<polygon fill="black" stroke="black" points="211.9,-216.52 215.4,-226.52 218.9,-216.52 211.9,-216.52"/>
</g>
<!-- ProductService -->
<g id="node4" class="node">
<title>ProductService</title>
<ellipse fill="#fdb462" stroke="black" cx="308" cy="-104" rx="70.06" ry="18"/>
<text text-anchor="middle" x="308" y="-99.8" font-family="Times,serif" font-size="14.00">ProductService</text>
</g>
<!-- ProductService&#45;&gt;ProductModule -->
<g id="edge3" class="edge">
<title>ProductService&#45;&gt;ProductModule</title>
<path fill="none" stroke="black" d="M308,-122.01C308,-122.01 308,-151.85 308,-151.85"/>
<polygon fill="black" stroke="black" points="304.5,-151.85 308,-161.85 311.5,-151.85 304.5,-151.85"/>
</g>
</g>
</svg>
